<?xml version="1.0" encoding="UTF-8"?>
<!DOCTYPE svg PUBLIC "-//W3C//DTD SVG 1.1//EN" "http://www.w3.org/Graphics/SVG/1.1/DTD/svg11.dtd">
<!-- Creator: CorelDRAW X7 -->
<svg xmlns="http://www.w3.org/2000/svg" xml:space="preserve" width="61.242mm" height="19.035mm" version="1.1" style="shape-rendering:geometricPrecision; text-rendering:geometricPrecision; image-rendering:optimizeQuality; fill-rule:evenodd; clip-rule:evenodd"
viewBox="0 0 6124 1904"
 xmlns:xlink="http://www.w3.org/1999/xlink">
 <defs>
  <style type="text/css">
   <![CDATA[
    .fil0 {fill:#FEFEFE}
   ]]>
  </style>
 </defs>
 <g id="Слой_x0020_1">
  <metadata id="CorelCorpID_0Corel-Layer"/>
  <path class="fil0" d="M3056 318c45,173 -10,280 -148,307 -161,15 -201,-86 -140,-259 -323,-159 -639,-73 -665,80 -17,104 69,180 425,310 62,19 84,254 -17,253 -369,-5 -530,119 -574,254 -79,240 267,531 973,11 57,-10 69,88 73,176 65,-339 110,-698 127,-1126 -5,-40 -57,-17 -54,-6zm-2332 270c8,-167 241,-242 252,-44l-30 218c181,19 582,-99 465,-318 -184,-341 -957,-164 -1089,541 -72,388 33,656 145,656 94,1 192,-182 201,-679 -205,29 -216,-357 30,-203l26 -171zm4359 -467c156,-16 306,-6 440,80l437 -4c76,15 96,82 68,172 -330,289 -573,630 -783,1003 73,102 334,129 437,77l276 -140c84,-18 185,44 163,145 -321,334 -670,373 -1012,125 -65,71 -147,73 -234,63 -183,152 -393,56 -465,-156 -48,-140 112,-854 132,-1058 35,-161 -135,-167 -198,-49 -188,311 -264,773 -390,1289 -18,75 -271,55 -259,-45 50,-432 147,-761 153,-1247 1,-73 -84,-113 -103,-77 -274,352 -365,804 -502,1274 -15,53 -30,114 -79,145 -126,17 -201,-11 -217,-90 9,-43 18,-87 27,-132 -308,279 -814,431 -1174,205 -667,387 -647,-198 -788,-662 -19,-39 -66,-54 -126,-59 3,542 -100,876 -345,913 -300,63 -437,-171 -525,-465 -60,-426 45,-811 381,-1138 503,-417 1311,-366 1315,175 -1,376 -307,490 -574,484 451,264 37,726 496,574 -96,-351 172,-689 546,-661 -307,-20 -441,-286 -331,-542 162,-326 743,-445 1059,-155l47 -48c113,-111 354,-90 354,98 29,218 -2,422 -47,622 66,-231 140,-454 259,-604 250,-314 630,-368 513,411 39,-195 116,-354 229,-480 87,-140 294,-215 441,-65 390,386 -235,1356 44,1372 314,-280 562,-665 828,-1018 -185,9 -316,-19 -388,-93l-171 242c-176,198 -168,-303 66,-481z"/>
 </g>
</svg>
