<svg xmlns="http://www.w3.org/2001/svg" hidden="true">
    <symbol id="logo" viewBox="0 0 6124 1904">
        <path class="fil0" d="M3056 318c45,173 -10,280 -148,307 -161,15 -201,-86 -140,-259 -323,-159 -639,-73 -665,80 -17,104 69,180 425,310 62,19 84,254 -17,253 -369,-5 -530,119 -574,254 -79,240 267,531 973,11 57,-10 69,88 73,176 65,-339 110,-698 127,-1126 -5,-40 -57,-17 -54,-6zm-2332 270c8,-167 241,-242 252,-44l-30 218c181,19 582,-99 465,-318 -184,-341 -957,-164 -1089,541 -72,388 33,656 145,656 94,1 192,-182 201,-679 -205,29 -216,-357 30,-203l26 -171zm4359 -467c156,-16 306,-6 440,80l437 -4c76,15 96,82 68,172 -330,289 -573,630 -783,1003 73,102 334,129 437,77l276 -140c84,-18 185,44 163,145 -321,334 -670,373 -1012,125 -65,71 -147,73 -234,63 -183,152 -393,56 -465,-156 -48,-140 112,-854 132,-1058 35,-161 -135,-167 -198,-49 -188,311 -264,773 -390,1289 -18,75 -271,55 -259,-45 50,-432 147,-761 153,-1247 1,-73 -84,-113 -103,-77 -274,352 -365,804 -502,1274 -15,53 -30,114 -79,145 -126,17 -201,-11 -217,-90 9,-43 18,-87 27,-132 -308,279 -814,431 -1174,205 -667,387 -647,-198 -788,-662 -19,-39 -66,-54 -126,-59 3,542 -100,876 -345,913 -300,63 -437,-171 -525,-465 -60,-426 45,-811 381,-1138 503,-417 1311,-366 1315,175 -1,376 -307,490 -574,484 451,264 37,726 496,574 -96,-351 172,-689 546,-661 -307,-20 -441,-286 -331,-542 162,-326 743,-445 1059,-155l47 -48c113,-111 354,-90 354,98 29,218 -2,422 -47,622 66,-231 140,-454 259,-604 250,-314 630,-368 513,411 39,-195 116,-354 229,-480 87,-140 294,-215 441,-65 390,386 -235,1356 44,1372 314,-280 562,-665 828,-1018 -185,9 -316,-19 -388,-93l-171 242c-176,198 -168,-303 66,-481z"/>
    </symbol>
    <symbol id="github" viewBox="0 0 438.549 438.549">
        <path d="M409.132,114.573c-19.608-33.596-46.205-60.194-79.798-79.8C295.736,15.166,259.057,5.365,219.271,5.365
            c-39.781,0-76.472,9.804-110.063,29.408c-33.596,19.605-60.192,46.204-79.8,79.8C9.803,148.168,0,184.854,0,224.63
            c0,47.78,13.94,90.745,41.827,128.906c27.884,38.164,63.906,64.572,108.063,79.227c5.14,0.954,8.945,0.283,11.419-1.996
            c2.475-2.282,3.711-5.14,3.711-8.562c0-0.571-0.049-5.708-0.144-15.417c-0.098-9.709-0.144-18.179-0.144-25.406l-6.567,1.136
            c-4.187,0.767-9.469,1.092-15.846,1c-6.374-0.089-12.991-0.757-19.842-1.999c-6.854-1.231-13.229-4.086-19.13-8.559
            c-5.898-4.473-10.085-10.328-12.56-17.556l-2.855-6.57c-1.903-4.374-4.899-9.233-8.992-14.559
            c-4.093-5.331-8.232-8.945-12.419-10.848l-1.999-1.431c-1.332-0.951-2.568-2.098-3.711-3.429c-1.142-1.331-1.997-2.663-2.568-3.997
            c-0.572-1.335-0.098-2.43,1.427-3.289c1.525-0.859,4.281-1.276,8.28-1.276l5.708,0.853c3.807,0.763,8.516,3.042,14.133,6.851
            c5.614,3.806,10.229,8.754,13.846,14.842c4.38,7.806,9.657,13.754,15.846,17.847c6.184,4.093,12.419,6.136,18.699,6.136
            c6.28,0,11.704-0.476,16.274-1.423c4.565-0.952,8.848-2.383,12.847-4.285c1.713-12.758,6.377-22.559,13.988-29.41
            c-10.848-1.14-20.601-2.857-29.264-5.14c-8.658-2.286-17.605-5.996-26.835-11.14c-9.235-5.137-16.896-11.516-22.985-19.126
            c-6.09-7.614-11.088-17.61-14.987-29.979c-3.901-12.374-5.852-26.648-5.852-42.826c0-23.035,7.52-42.637,22.557-58.817
            c-7.044-17.318-6.379-36.732,1.997-58.24c5.52-1.715,13.706-0.428,24.554,3.853c10.85,4.283,18.794,7.952,23.84,10.994
            c5.046,3.041,9.089,5.618,12.135,7.708c17.705-4.947,35.976-7.421,54.818-7.421s37.117,2.474,54.823,7.421l10.849-6.849
            c7.419-4.57,16.18-8.758,26.262-12.565c10.088-3.805,17.802-4.853,23.134-3.138c8.562,21.509,9.325,40.922,2.279,58.24
            c15.036,16.18,22.559,35.787,22.559,58.817c0,16.178-1.958,30.497-5.853,42.966c-3.9,12.471-8.941,22.457-15.125,29.979
            c-6.191,7.521-13.901,13.85-23.131,18.986c-9.232,5.14-18.182,8.85-26.84,11.136c-8.662,2.286-18.415,4.004-29.263,5.146
            c9.894,8.562,14.842,22.077,14.842,40.539v60.237c0,3.422,1.19,6.279,3.572,8.562c2.379,2.279,6.136,2.95,11.276,1.995
            c44.163-14.653,80.185-41.062,108.068-79.226c27.88-38.161,41.825-81.126,41.825-128.906
            C438.536,184.851,428.728,148.168,409.132,114.573z"/>
    </symbol>
    <symbol id="letter" viewBox="0 0 612 612">
        <path style="fill:#010002;" d="M306,612c-28.152,0-55.284-3.672-81.396-11.016c-26.112-7.347-50.49-17.646-73.134-30.906
            s-43.248-29.172-61.812-47.736c-18.564-18.562-34.476-39.168-47.736-61.812c-13.26-22.646-23.562-47.022-30.906-73.135
            C3.672,361.284,0,334.152,0,306s3.672-55.284,11.016-81.396s17.646-50.49,30.906-73.134s29.172-43.248,47.736-61.812
            s39.168-34.476,61.812-47.736s47.022-23.562,73.134-30.906S277.848,0,306,0c42.024,0,81.702,8.058,119.034,24.174
            s69.768,37.944,97.308,65.484s49.368,59.976,65.484,97.308S612,263.976,612,306c0,28.152-3.672,55.284-11.016,81.396
            c-7.347,26.109-17.646,50.487-30.906,73.134c-13.26,22.644-29.172,43.248-47.736,61.812
            c-18.562,18.564-39.168,34.479-61.812,47.736c-22.646,13.26-47.022,23.562-73.136,30.906C361.284,608.328,334.152,612,306,612z
                M453.492,179.928H163.404c-2.856,0-5.304,0.918-7.344,2.754s-3.06,4.386-3.06,7.65v32.436c0,1.632,0.612,2.448,1.836,2.448
            l152.388,86.904l1.227,0.612c0.813,0,1.428-0.204,1.836-0.612l147.492-86.904c0.813-0.408,1.428-0.612,1.836-0.612
            c0.405,0,1.02-0.204,1.836-0.612c1.632,0,2.448-0.816,2.448-2.448v-31.212c0-3.264-1.021-5.814-3.063-7.65
            S456.348,179.928,453.492,179.928z M245.412,310.284c0.408-0.408,0.612-1.021,0.612-1.836c0-1.227-0.408-1.836-1.224-1.836
            l-87.516-50.185c-1.224-0.408-2.244-0.408-3.06,0c-0.816,0-1.224,0.612-1.224,1.836v131.58c0,1.227,0.612,2.04,1.836,2.448h1.224
            c0.816,0,1.224-0.204,1.224-0.612L245.412,310.284z M351.9,320.076c-0.408-1.227-1.431-1.428-3.063-0.612l-33.66,19.584
            c-4.08,2.448-8.361,2.448-12.852,0l-29.376-16.521c-1.224-0.816-2.244-0.816-3.06,0l-111.996,104.04
            c-0.408,0.405-0.612,1.224-0.612,2.445c0,0.408,0.408,1.021,1.224,1.836c2.448,0.816,4.08,1.227,4.896,1.227H450.43
            c0.816,0,1.635-0.408,2.448-1.227c0-1.632-0.204-2.649-0.612-3.06L351.9,320.076z M462.06,253.98h-2.445l-83.232,49.572
            c-0.813,0-1.224,0.612-1.224,1.836c-0.408,0.408-0.204,1.02,0.609,1.833L459,397.188c0.816,0.816,1.428,1.227,1.836,1.227h1.224
            c1.227-1.227,1.839-2.04,1.839-2.448V256.429C463.896,255.612,463.284,254.796,462.06,253.98z"/>
    </symbol>
    <symbol id="pin" viewBox="0 0 430.114 430.114">
        <path id="Facebook_Places" d="M356.208,107.051c-1.531-5.738-4.64-11.852-6.94-17.205C321.746,23.704,261.611,0,213.055,0
            C148.054,0,76.463,43.586,66.905,133.427v18.355c0,0.766,0.264,7.647,0.639,11.089c5.358,42.816,39.143,88.32,64.375,131.136
            c27.146,45.873,55.314,90.999,83.221,136.106c17.208-29.436,34.354-59.259,51.17-87.933c4.583-8.415,9.903-16.825,14.491-24.857
            c3.058-5.348,8.9-10.696,11.569-15.672c27.145-49.699,70.838-99.782,70.838-149.104v-20.262
            C363.209,126.938,356.581,108.204,356.208,107.051z M214.245,199.193c-19.107,0-40.021-9.554-50.344-35.939
            c-1.538-4.2-1.414-12.617-1.414-13.388v-11.852c0-33.636,28.56-48.932,53.406-48.932c30.588,0,54.245,24.472,54.245,55.06
            C270.138,174.729,244.833,199.193,214.245,199.193z"/>
    </symbol>
    <symbol id="phone" viewBox="0 0 485.213 485.212">
        <path d="M242.607,0C108.629,0,0.001,108.628,0.001,242.606c0,133.976,108.628,242.606,242.606,242.606
            c133.978,0,242.604-108.631,242.604-242.606C485.212,108.628,376.585,0,242.607,0z M370.719,353.989l-19.425,19.429
            c-3.468,3.463-13.623,5.624-13.949,5.624c-61.452,0.536-120.621-23.602-164.095-67.08c-43.593-43.618-67.759-102.998-67.11-164.657
            c0-0.028,2.224-9.892,5.689-13.324l19.424-19.427c7.108-7.141,20.762-10.368,30.327-7.168l4.086,1.363
            c9.537,3.197,19.55,13.742,22.185,23.457l9.771,35.862c2.635,9.743-0.919,23.604-8.025,30.712l-12.97,12.972
            c12.734,47.142,49.723,84.138,96.873,96.903l12.965-12.975c7.141-7.141,20.997-10.692,30.719-8.061l35.857,9.806
            c9.717,2.67,20.26,12.62,23.456,22.154l1.363,4.145C381.028,333.262,377.826,346.913,370.719,353.989z"/>
    </symbol>
    <symbol id="skype" viewBox="0 0 430.123 430.123"> 
        <path d="M412.164,246.198c1.605-10.155,2.45-20.544,2.45-31.148c0-110.215-89.342-199.555-199.56-199.555
            c-10.576,0-20.995,0.871-31.141,2.458C165.534,6.581,143.842,0,120.595,0C53.996,0,0.005,53.984,0.005,120.59
            c0,23.242,6.585,44.916,17.952,63.332c-1.573,10.172-2.439,20.528-2.439,31.132c0,110.223,89.34,199.536,199.532,199.536
            c10.585,0,21.007-0.816,31.152-2.417c18.398,11.35,40.072,17.949,63.314,17.949c66.617,0,120.602-53.998,120.602-120.602
            C430.123,286.269,423.542,264.6,412.164,246.198z M309.801,305.81c-8.442,12.153-20.843,21.65-37.047,28.479
            c-16.237,6.847-35.428,10.254-57.59,10.254c-26.562,0-48.554-4.648-65.913-14.034c-12.305-6.721-22.313-15.737-30.007-26.98
            c-7.71-11.252-11.619-22.271-11.619-33.015c0-6.338,2.417-11.85,7.122-16.344c4.754-4.527,10.877-6.796,18.104-6.796
            c5.92,0,11.005,1.783,15.145,5.316c4.109,3.532,7.556,8.667,10.375,15.443c3.379,7.85,7.049,14.412,10.954,19.648
            c3.881,5.171,9.343,9.488,16.417,12.867c6.996,3.388,16.307,5.082,27.958,5.082c15.945,0,28.831-3.449,38.693-10.253
            c9.912-6.866,14.673-15.22,14.673-25.314c0-8.051-2.567-14.445-7.831-19.43c-5.312-5.05-12.172-8.896-20.685-11.579
            c-8.546-2.711-20.02-5.586-34.399-8.615c-19.308-4.214-35.456-9.119-48.533-14.752c-13.094-5.654-23.522-13.383-31.251-23.146
            c-7.745-9.859-11.607-22.113-11.607-36.627c0-13.84,4.077-26.217,12.239-36.989c8.158-10.802,19.961-19.07,35.351-24.829
            c15.336-5.757,33.391-8.637,54.075-8.637c16.541,0,30.849,1.914,42.96,5.722c12.078,3.836,22.146,8.898,30.196,15.25
            c7.999,6.338,13.885,13.023,17.613,20.038c3.725,7.036,5.601,13.908,5.601,20.614c0,6.235-2.417,11.89-7.127,16.846
            c-4.709,4.963-10.733,7.493-17.768,7.47c-6.342,0-11.317-1.463-14.767-4.56c-3.36-2.996-6.889-7.766-10.706-14.414
            c-4.825-9.276-10.604-16.503-17.324-21.672c-6.543-5.073-17.338-7.714-32.359-7.682c-13.898,0-25.018,2.84-33.411,8.394
            c-8.445,5.643-12.482,12.19-12.501,19.861c0.014,4.807,1.396,8.86,4.177,12.326c2.824,3.498,6.753,6.529,11.803,9.084
            c5.052,2.595,10.191,4.602,15.355,6.046c5.225,1.481,13.894,3.622,25.944,6.457c15.112,3.257,28.819,6.896,41.136,10.862
            c12.293,3.986,22.784,8.793,31.451,14.52c8.736,5.71,15.564,12.99,20.438,21.783c4.909,8.807,7.354,19.564,7.354,32.222
            C322.509,279.968,318.263,293.676,309.801,305.81z"/>
    </symbol>
</svg>